<svg width="24" height="24" viewBox="0 0 24 24" fill="none" xmlns="http://www.w3.org/2000/svg">
<path d="M12 21C16.9706 21 21 16.9706 21 12C21 7.02944 16.9706 3 12 3C7.02944 3 3 7.02944 3 12C3 16.9706 7.02944 21 12 21Z" stroke="#323232" stroke-width="2" stroke-linecap="round" stroke-linejoin="round"/>
<path d="M3.59961 9H20.3996M3.59961 15H20.3996M11.4996 3C9.81495 5.69961 8.92181 8.81787 8.92181 12C8.92181 15.1821 9.81495 18.3004 11.4996 21M12.4996 3C14.1843 5.69961 15.0774 8.81787 15.0774 12C15.0774 15.1821 14.1843 18.3004 12.4996 21" stroke="#323232" stroke-width="2" stroke-linecap="round" stroke-linejoin="round"/>
</svg>
